<svg class="svg-icon" style="width: 1.0234375em;height: 1em;vertical-align: middle;fill: currentColor;overflow: hidden;" viewBox="0 0 1048 1024" version="1.1" xmlns="http://www.w3.org/2000/svg"><path d="M1018.004048 626.897735H105.940819c-30.757012 0-55.777157-29.609639-55.777156-65.980145 0-36.395181 25.032482-65.992482 55.764819-65.992482a21.997494 21.997494 0 0 0 0-43.994988C50.928578 450.93012 6.168675 500.267181 6.168675 560.905253c0 52.224 33.261494 95.861205 77.614265 107.038843 3.133687 1.702554 6.538795 2.936289 10.363373 2.93629h923.857735a21.997494 21.997494 0 0 0 0-43.982651zM534.083855 362.940145c97.020916 0 175.967614-78.946699 175.967615-175.967615S631.117108 11.004916 534.083855 11.004916c-97.04559 0-175.979952 78.934361-175.979951 175.967614 0 97.020916 78.946699 175.967614 175.979951 175.967615zM404.097542 164.975036C414.596627 102.646747 468.819277 54.987566 534.083855 54.987566c72.778024 0 131.972627 59.20694 131.972627 131.984964S606.86188 318.945157 534.083855 318.945157c-65.264578 0-119.474892-47.659181-129.99865-109.975133h151.996144v-43.994988h-151.996144zM886.870361 758.870361a21.997494 21.997494 0 0 0 0-43.994988H600.064a21.997494 21.997494 0 0 0 0 43.994988h286.806361zM204.133783 582.902747h659.887807a21.997494 21.997494 0 0 0 0-43.994988H204.133783a21.997494 21.997494 0 0 0 0 43.994988z m736.885205 219.962602H314.108916c-3.824578 0-7.229687 1.233735-10.363374 2.948627-44.352771 11.165301-77.614265 54.814843-77.614265 107.026506 0 60.638072 44.759904 109.98747 99.772145 109.98747a21.997494 21.997494 0 0 0 0-43.994988c-30.757012 0-55.777157-29.609639-55.777157-65.992482 0-36.382843 25.020145-65.980145 55.764819-65.980145h615.127904a21.997494 21.997494 0 0 0 0-43.994988zM688.053976 890.842988H358.103904a21.997494 21.997494 0 0 0 0 43.994988H688.053976a21.997494 21.997494 0 0 0 0-43.994988z m-516.133012 0c-30.744675 0-55.764819-29.584964-55.764819-65.980145 0-36.395181 25.032482-65.992482 55.764819-65.992482h275.024193a21.997494 21.997494 0 0 0 0-43.98265H160.151133c-3.824578 0-7.242024 1.233735-10.375711 2.948626-44.352771 11.152964-77.614265 54.802506-77.614265 107.026506 0 60.638072 44.747566 109.975133 99.759807 109.975133a21.997494 21.997494 0 0 0 0-43.994988z" fill="#205081" /></svg>